<svg xmlns="http://www.w3.org/2000/svg" width="1200" height="630" viewBox="0 0 1200 630">
  <defs>
    <linearGradient id="bg" x1="0" y1="0" x2="1" y2="1">
      <stop offset="0%" stop-color="#0f172a"/>
      <stop offset="55%" stop-color="#111827"/>
      <stop offset="100%" stop-color="#1f2937"/>
    </linearGradient>
    <linearGradient id="accent" x1="0" y1="0" x2="1" y2="0">
      <stop offset="0%" stop-color="#14b8a6"/>
      <stop offset="100%" stop-color="#f59e0b"/>
    </linearGradient>
    <filter id="shadow" x="-20%" y="-20%" width="140%" height="140%">
      <feDropShadow dx="0" dy="16" stdDeviation="24" flood-color="#000000" flood-opacity="0.35" />
    </filter>
  </defs>
  <rect width="1200" height="630" fill="url(#bg)"/>
  <circle cx="1040" cy="120" r="220" fill="#14b8a6" fill-opacity="0.08"/>
  <circle cx="180" cy="530" r="260" fill="#f59e0b" fill-opacity="0.08"/>
  <rect x="80" y="80" width="150" height="150" rx="36" fill="#1f2937" filter="url(#shadow)"/>
  <path d="M80 190h150v40H80z" fill="#14b8a6"/>
  <path d="M154 104 107 220h20l10-26h45l10 26h22l-47-116h-13Zm-9 71 15-39 15 39h-30Z" fill="#f8fafc"/>
  <text x="272" y="156" fill="#f8fafc" font-family="Inter, Manrope, system-ui, sans-serif" font-size="72" font-weight="800">Gloss Garage</text>
  <rect x="272" y="184" width="286" height="6" rx="3" fill="url(#accent)"/>
  <text x="272" y="262" fill="#cbd5e1" font-family="Inter, Manrope, system-ui, sans-serif" font-size="40" font-weight="600">Avtoyuma/Detailing</text>
  <text x="272" y="330" fill="#94a3b8" font-family="Inter, Manrope, system-ui, sans-serif" font-size="26" font-weight="500">Premium auto care. Clean, polished, protected.</text>
  <g transform="translate(272 402)">
    <rect width="240" height="66" rx="33" fill="#0f766e"/>
    <text x="120" y="42" fill="#f8fafc" font-family="Inter, Manrope, system-ui, sans-serif" font-size="24" font-weight="700" text-anchor="middle">Gloss Garage</text>
  </g>
</svg>
